<svg width="145" height="45" viewBox="0 0 145 45" fill="none" xmlns="http://www.w3.org/2000/svg">
<path d="M0 0.273044V19.4407H10.7852V15.8365H4.66905V0.273044H0Z" fill="white"/>
<path d="M11.7016 11.7136C11.7016 17.0106 15.1693 19.6319 19.6199 19.6319C24.0432 19.6319 27.7566 17.0106 27.7566 11.7136V0.273044H23.0876V11.7409C23.0876 14.0071 21.9135 15.3178 19.7018 15.3178C17.4902 15.3178 16.3707 14.0071 16.3707 11.7409V0.273044H11.7016V11.7136Z" fill="white"/>
<path d="M29.5881 4.01374H34.6668V19.4407H39.3358V4.01374H44.4144V0.273044H29.5881V4.01374Z" fill="white"/>
<path d="M46.1297 4.01374H51.2083V19.4407H55.8773V4.01374H60.956V0.273044H46.1297V4.01374Z" fill="white"/>
<path d="M74.494 0.273044H62.7532V19.4407H74.494V15.7H67.4222V11.4951H73.6749V7.89097H67.4222V4.01374H74.494V0.273044Z" fill="white"/>
<path d="M86.563 6.49844C86.563 8.00018 85.7439 8.90123 83.9964 8.90123H81.1021V4.15027H83.9964C85.7439 4.15027 86.563 5.07862 86.563 6.49844ZM76.4331 0.273044V19.4407H81.1021V12.2051H82.2216L86.208 19.4407H91.4778L87.0545 11.8501C90.0033 10.9764 91.314 8.7101 91.314 6.30731C91.314 2.97618 88.9658 0.273044 84.2694 0.273044H76.4331Z" fill="white"/>
<path d="M111.884 9.80227C111.884 4.04105 107.542 0 102.081 0C96.6477 0 92.2244 4.04105 92.2244 9.80227C92.2244 15.5635 96.6477 19.6319 102.081 19.6319C107.515 19.6319 111.884 15.5635 111.884 9.80227ZM97.0027 9.80227C97.0027 6.38923 98.9686 4.23218 102.081 4.23218C105.139 4.23218 107.133 6.38923 107.133 9.80227C107.133 13.1607 105.139 15.3724 102.081 15.3724C98.9686 15.3724 97.0027 13.1607 97.0027 9.80227Z" fill="white"/>
<path d="M120.433 0.273044H113.252V19.4407H120.433C126.55 19.4407 130.481 15.5362 130.481 9.85688C130.481 4.15027 126.55 0.273044 120.433 0.273044ZM117.921 15.3997V4.25948H120.133C123.655 4.25948 125.73 6.33462 125.73 9.85688C125.73 13.3791 123.655 15.3997 120.133 15.3997H117.921Z" fill="white"/>
<path d="M130.005 4.01374H135.084V19.4407H139.753V4.01374H144.832V0.273044H130.005V4.01374Z" fill="white"/>
<rect x="0.000976562" y="25.8871" width="144.836" height="19.1131" transform="rotate(-0.208517 0.000976562 25.8871)" fill="url(#paint0_radial_61_27)"/>
<defs>
<radialGradient id="paint0_radial_61_27" cx="0" cy="0" r="1" gradientUnits="userSpaceOnUse" gradientTransform="translate(-37.3572 35.0066) rotate(0.205297) scale(192.514 601.483)">
<stop offset="0.159493" stop-color="white"/>
<stop offset="0.260417" stop-color="#FF7A00"/>
<stop offset="0.59375" stop-color="#FF0000"/>
<stop offset="1" stop-color="#0500FF"/>
</radialGradient>
</defs>
</svg>
